<svg width="1005" height="511" viewBox="0 0 1005 511" fill="none" xmlns="http://www.w3.org/2000/svg">
<path d="M0 505.302V254.224H41.6769V354.06H61.1661V254.224H102.543V505.302H61.1661V397.818H41.6769V505.302H0Z" fill="#FAFAFA"/>
<path d="M122.393 505.302V254.224H206.346V295.433H165.869V353.21H201.249V399.518H165.869V464.943H206.346V505.302H122.393Z" fill="#FAFAFA"/>
<path d="M221.654 505.302V254.224H257.634L286.718 388.047V254.224H322.998V505.302H287.018L258.234 382.949V505.302H221.654Z" fill="#FAFAFA"/>
<path d="M345.511 505.302V254.224H411.475C420.07 254.224 427.066 256.065 432.463 259.746C438.06 263.145 442.158 268.243 444.756 275.041C447.555 281.555 448.954 289.485 448.954 298.831V451.773C448.954 465.367 447.155 476.13 443.557 484.06C440.159 491.707 435.162 497.23 428.565 500.629C422.169 503.744 414.473 505.302 405.478 505.302H345.511ZM388.987 475.139H398.582C401.18 475.139 403.279 473.864 404.878 471.315C406.478 468.766 407.277 464.093 407.277 457.295V305.204C407.277 298.407 406.478 293.733 404.878 291.184C403.279 288.352 401.18 286.936 398.582 286.936H388.987V475.139Z" fill="#FAFAFA"/>
<path d="M467.026 505.302V254.224H535.688C548.081 254.224 557.276 258.189 563.273 266.119C569.269 273.766 572.268 283.962 572.268 296.707V335.792C572.268 348.254 569.969 359.3 565.371 368.929C560.974 378.559 553.478 384.082 542.884 385.498V386.348C549.68 388.047 554.477 391.304 557.276 396.119C560.074 400.651 562.473 408.156 564.472 418.635L580.663 505.302H534.488L522.795 422.459C521.796 416.228 520.796 411.271 519.797 407.59C518.797 403.624 517.398 401.642 515.599 401.642H510.502V505.302H467.026ZM510.502 360.433H519.797C523.794 360.433 526.693 358.592 528.492 354.91C530.491 351.228 531.49 345.139 531.49 336.642V307.753C531.49 299.256 530.691 293.45 529.091 290.335C527.492 287.219 524.894 285.661 521.296 285.661H510.502V360.433Z" fill="#FAFAFA"/>
<path d="M593.518 505.302V254.224H635.195V505.302H593.518Z" fill="#FAFAFA"/>
<path d="M705.679 510.4C695.285 510.4 686.19 508.701 678.395 505.302C670.599 501.62 664.402 494.398 659.805 483.635C655.407 472.873 653.209 456.729 653.209 435.204V307.328C653.209 292.884 655.407 281.555 659.805 273.341C664.402 265.128 670.599 259.322 678.395 255.923C686.39 252.241 695.485 250.4 705.679 250.4C716.274 250.4 725.368 252.241 732.964 255.923C740.56 259.322 746.357 265.128 750.355 273.341C754.552 281.555 756.651 292.884 756.651 307.328V362.982H714.974V304.779C714.974 299.681 714.574 295.858 713.775 293.309C712.975 290.76 711.876 289.06 710.477 288.21C709.277 287.078 707.678 286.511 705.679 286.511C703.88 286.511 702.281 287.078 700.882 288.21C699.483 289.06 698.383 290.76 697.584 293.309C696.784 295.858 696.385 299.681 696.385 304.779V457.72C696.385 462.535 696.784 466.359 697.584 469.191C698.383 472.023 699.483 473.864 700.882 474.714C702.281 475.563 703.88 475.988 705.679 475.988C707.678 475.988 709.277 475.563 710.477 474.714C711.876 473.864 712.975 472.023 713.775 469.191C714.574 466.359 714.974 462.535 714.974 457.72V403.766H756.651V434.779C756.651 456.587 754.552 472.873 750.355 483.635C746.357 494.398 740.56 501.62 732.964 505.302C725.368 508.701 716.274 510.4 705.679 510.4Z" fill="#FAFAFA"/>
<path d="M844.648 505.302L815.864 375.302L844.348 254.224H888.723L856.341 374.877L889.623 505.302H844.648ZM773.887 505.302V254.224H815.564V505.302H773.887Z" fill="#FAFAFA"/>
<path d="M950.13 508.701C938.937 508.701 929.342 506.577 921.346 502.328C913.351 498.08 907.254 490.574 903.057 479.812C899.059 469.049 897.06 453.614 897.06 433.505V418.21C904.256 418.21 911.452 418.21 918.648 418.21C926.044 418.21 933.34 418.21 940.536 418.21V438.603C940.536 447.666 940.936 454.605 941.735 459.42C942.535 463.951 943.634 467.067 945.033 468.766C946.632 470.465 948.531 471.315 950.73 471.315C954.128 471.315 956.627 469.474 958.226 465.792C960.025 461.827 960.924 454.18 960.924 442.851C960.924 432.938 959.825 425.716 957.626 421.184C955.627 416.37 952.229 412.404 947.432 409.289C942.635 406.173 936.238 402.35 928.243 397.818C921.047 393.004 915.25 387.481 910.852 381.25C906.455 375.019 903.256 367.23 901.258 357.884C899.459 348.537 898.559 337.492 898.559 324.746C898.559 307.47 900.158 293.592 903.356 283.112C906.555 272.633 911.952 265.128 919.547 260.596C927.143 255.781 937.637 253.374 951.03 253.374C968.021 253.374 980.913 258.472 989.708 268.668C998.504 278.581 1002.9 293.592 1002.9 313.701V344.714C996.105 344.714 989.209 344.714 982.213 344.714C975.416 344.714 968.52 344.714 961.524 344.714V331.544C961.524 319.648 960.924 311.435 959.725 306.903C958.526 302.372 955.727 300.106 951.33 300.106C947.532 300.106 944.933 301.947 943.534 305.629C942.135 309.027 941.435 314.692 941.435 322.622C941.435 331.685 942.635 338.624 945.033 343.439C947.632 347.971 950.93 351.511 954.928 354.06C958.926 356.326 963.123 358.592 967.521 360.858C976.316 365.672 983.412 370.629 988.809 375.727C994.406 380.542 998.504 387.339 1001.1 396.119C1003.7 404.899 1005 417.502 1005 433.929C1005 452.622 1002.8 467.492 998.404 478.537C994.006 489.3 987.61 497.088 979.214 501.903C971.019 506.435 961.324 508.701 950.13 508.701Z" fill="#FAFAFA"/>
<path d="M52.6101 260C42.2104 260 33.1107 258.301 25.3109 254.902C17.5112 251.22 11.3114 243.998 6.71149 233.235C2.31163 222.473 0.111694 206.329 0.111694 184.804V56.9281C0.111694 42.4837 2.31163 31.1547 6.71149 22.9412C11.3114 14.7277 17.5112 8.92156 25.3109 5.52288C33.3107 1.84096 42.4104 0 52.6101 0C63.2098 0 72.3095 1.84096 79.9093 5.52288C87.509 8.92156 93.3088 14.7277 97.3087 22.9412C101.509 31.1547 103.609 42.4837 103.609 56.9281V112.582H61.9098V54.3791C61.9098 49.281 61.5098 45.4575 60.7098 42.9085C59.9099 40.3595 58.8099 38.6601 57.4099 37.8105C56.21 36.6776 54.61 36.1111 52.6101 36.1111C50.8101 36.1111 49.2102 36.6776 47.8102 37.8105C46.4103 38.6601 45.3103 40.3595 44.5103 42.9085C43.7104 45.4575 43.3104 49.281 43.3104 54.3791V207.32C43.3104 212.135 43.7104 215.959 44.5103 218.791C45.3103 221.623 46.4103 223.464 47.8102 224.314C49.2102 225.163 50.8101 225.588 52.6101 225.588C54.61 225.588 56.21 225.163 57.4099 224.314C58.8099 223.464 59.9099 221.623 60.7098 218.791C61.5098 215.959 61.9098 212.135 61.9098 207.32V153.366H103.609V184.379C103.609 206.187 101.509 222.473 97.3087 233.235C93.3088 243.998 87.509 251.22 79.9093 254.902C72.3095 258.301 63.2098 260 52.6101 260Z" fill="#FAFAFA"/>
<path d="M120.853 254.902V3.82353H162.552V103.66H182.051V3.82353H223.45V254.902H182.051V147.418H162.552V254.902H120.853Z" fill="#FAFAFA"/>
<path d="M243.311 254.902V3.82353H285.009V254.902H243.311Z" fill="#FAFAFA"/>
<path d="M355.53 260C345.131 260 336.031 258.301 328.231 254.902C320.432 251.22 314.232 243.998 309.632 233.235C305.232 222.473 303.032 206.329 303.032 184.804V56.9281C303.032 42.4837 305.232 31.1547 309.632 22.9412C314.232 14.7277 320.432 8.92156 328.231 5.52288C336.231 1.84096 345.331 0 355.53 0C366.13 0 375.23 1.84096 382.83 5.52288C390.429 8.92156 396.229 14.7277 400.229 22.9412C404.429 31.1547 406.529 42.4837 406.529 56.9281V112.582H364.83V54.3791C364.83 49.281 364.43 45.4575 363.63 42.9085C362.83 40.3595 361.73 38.6601 360.33 37.8105C359.13 36.6776 357.53 36.1111 355.53 36.1111C353.731 36.1111 352.131 36.6776 350.731 37.8105C349.331 38.6601 348.231 40.3595 347.431 42.9085C346.631 45.4575 346.231 49.281 346.231 54.3791V207.32C346.231 212.135 346.631 215.959 347.431 218.791C348.231 221.623 349.331 223.464 350.731 224.314C352.131 225.163 353.731 225.588 355.53 225.588C357.53 225.588 359.13 225.163 360.33 224.314C361.73 223.464 362.83 221.623 363.63 218.791C364.43 215.959 364.83 212.135 364.83 207.32V153.366H406.529V184.379C406.529 206.187 404.429 222.473 400.229 233.235C396.229 243.998 390.429 251.22 382.83 254.902C375.23 258.301 366.13 260 355.53 260Z" fill="#FAFAFA"/>
<path d="M415.674 254.902L443.873 3.82353H504.771L532.37 254.902H485.872L481.972 213.693H463.972L460.673 254.902H415.674ZM464.272 184.804H481.972L473.272 52.6797L464.272 184.804Z" fill="#FAFAFA"/>
<path d="M581.379 259.15C574.979 259.15 568.779 257.593 562.78 254.477C556.98 251.362 552.08 244.989 548.08 235.359C544.28 225.73 542.38 211.569 542.38 192.876V57.7778C542.38 43.3333 544.48 32.0044 548.68 23.7908C553.08 15.2941 559.08 9.34641 566.68 5.94771C574.279 2.54901 583.279 0.849662 593.679 0.849662C603.878 0.849662 612.878 2.69062 620.678 6.37254C628.478 9.77124 634.577 15.5773 638.977 23.7908C643.577 32.0044 645.877 43.3333 645.877 57.7778V94.7386H605.378V54.3791C605.378 49.281 604.878 45.4575 603.878 42.9085C603.078 40.3595 601.878 38.6601 600.279 37.8105C598.879 36.6776 596.979 36.1111 594.579 36.1111C592.579 36.1111 590.779 36.6776 589.179 37.8105C587.579 38.6601 586.279 40.3595 585.279 42.9085C584.479 45.4575 584.079 49.281 584.079 54.3791V207.32C584.079 212.135 584.479 215.959 585.279 218.791C586.279 221.623 587.579 223.464 589.179 224.314C590.779 225.163 592.579 225.588 594.579 225.588C597.979 225.588 600.578 224.172 602.378 221.34C604.378 218.508 605.378 213.834 605.378 207.32V158.889H594.579V125.752H645.877V254.902H614.378L612.278 237.059C612.278 237.342 612.178 237.767 611.978 238.333C611.778 238.617 611.578 238.9 611.378 239.183C609.778 243.715 606.578 248.246 601.778 252.778C597.179 257.026 590.379 259.15 581.379 259.15Z" fill="#FAFAFA"/>
<path d="M712.913 260C702.714 260 693.714 258.301 685.914 254.902C678.314 251.22 672.315 243.998 667.915 233.235C663.715 222.473 661.615 206.329 661.615 184.804V56.9281C661.615 42.4837 663.715 31.1547 667.915 22.9412C672.315 14.7277 678.314 8.92156 685.914 5.52288C693.714 1.84096 702.714 0 712.913 0C723.113 0 732.113 1.84096 739.912 5.52288C747.712 8.92156 753.812 14.7277 758.212 22.9412C762.812 31.1547 765.112 42.4837 765.112 56.9281V184.379C765.112 206.187 762.812 222.473 758.212 233.235C753.812 243.998 747.712 251.22 739.912 254.902C732.113 258.301 723.113 260 712.913 260ZM712.913 225.588C714.913 225.588 716.713 225.022 718.313 223.889C720.113 222.756 721.413 220.915 722.213 218.366C723.013 215.534 723.413 211.852 723.413 207.32V54.3791C723.413 50.1307 723.013 46.5904 722.213 43.7582C721.413 40.9259 720.113 38.9434 718.313 37.8105C716.713 36.6776 714.913 36.1111 712.913 36.1111C710.913 36.1111 709.113 36.6776 707.513 37.8105C705.914 38.9434 704.614 40.9259 703.614 43.7582C702.814 46.5904 702.414 50.1307 702.414 54.3791V207.32C702.414 211.852 702.814 215.534 703.614 218.366C704.614 220.915 705.914 222.756 707.513 223.889C709.113 225.022 710.913 225.588 712.913 225.588Z" fill="#FAFAFA"/>
</svg>
