<svg width="697" height="261" viewBox="0 0 697 261" fill="none" xmlns="http://www.w3.org/2000/svg">
<path d="M52.6954 260.6C42.2988 260.6 33.2017 258.901 25.4043 255.502C17.6068 251.82 11.4088 244.598 6.81027 233.835C2.41169 223.073 0.212402 206.929 0.212402 185.404V57.5281C0.212402 43.0837 2.41169 31.7547 6.81027 23.5412C11.4088 15.3277 17.6068 9.52157 25.4043 6.12289C33.4017 2.44097 42.4987 0.600006 52.6954 0.600006C63.292 0.600006 72.3891 2.44097 79.9866 6.12289C87.5842 9.52157 93.3823 15.3277 97.381 23.5412C101.58 31.7547 103.679 43.0837 103.679 57.5281V113.182H61.9924V54.9791C61.9924 49.8811 61.5926 46.0575 60.7928 43.5085C59.9931 40.9595 58.8934 39.2601 57.4939 38.4105C56.2943 37.2776 54.6948 36.7111 52.6954 36.7111C50.896 36.7111 49.2965 37.2776 47.897 38.4105C46.4974 39.2601 45.3978 40.9595 44.5981 43.5085C43.7983 46.0575 43.3984 49.8811 43.3984 54.9791V207.92C43.3984 212.735 43.7983 216.559 44.5981 219.391C45.3978 222.223 46.4974 224.064 47.897 224.914C49.2965 225.763 50.896 226.188 52.6954 226.188C54.6948 226.188 56.2943 225.763 57.4939 224.914C58.8934 224.064 59.9931 222.223 60.7928 219.391C61.5926 216.559 61.9924 212.735 61.9924 207.92V153.966H103.679V184.979C103.679 206.787 101.58 223.073 97.381 233.835C93.3823 244.598 87.5842 251.82 79.9866 255.502C72.3891 258.901 63.292 260.6 52.6954 260.6Z" fill="#FAFAFA"/>
<path d="M120.919 255.502V4.42354H162.005V215.142H198.294V255.502H120.919Z" fill="#FAFAFA"/>
<path d="M210.831 255.502V4.42354H252.518V255.502H210.831Z" fill="#FAFAFA"/>
<path d="M272.335 255.502V4.42354H356.307V45.6327H315.821V103.41H351.209V149.718H315.821V215.142H356.307V255.502H272.335Z" fill="#FAFAFA"/>
<path d="M371.619 255.502V4.42354H407.607L436.698 138.247V4.42354H472.986V255.502H436.998L408.207 133.149V255.502H371.619Z" fill="#FAFAFA"/>
<path d="M512.063 255.502V45.6327H485.671V4.42354H580.141V45.6327H553.449V255.502H512.063Z" fill="#FAFAFA"/>
<path d="M641.33 258.901C630.134 258.901 620.537 256.776 612.54 252.528C604.542 248.28 598.444 240.774 594.245 230.012C590.247 219.249 588.247 203.814 588.247 183.705V168.41C595.445 168.41 602.643 168.41 609.84 168.41C617.238 168.41 624.536 168.41 631.733 168.41V188.803C631.733 197.866 632.133 204.805 632.933 209.62C633.733 214.151 634.832 217.267 636.232 218.966C637.831 220.665 639.731 221.515 641.93 221.515C645.329 221.515 647.828 219.674 649.428 215.992C651.227 212.027 652.127 204.38 652.127 193.051C652.127 183.138 651.027 175.916 648.828 171.384C646.828 166.57 643.43 162.604 638.631 159.489C633.833 156.373 627.435 152.55 619.437 148.018C612.24 143.203 606.441 137.681 602.043 131.45C597.644 125.219 594.445 117.43 592.446 108.084C590.647 98.7373 589.747 87.6915 589.747 74.9464C589.747 57.6697 591.346 43.7917 594.545 33.3124C597.744 22.8331 603.142 15.3277 610.74 10.7961C618.338 5.98126 628.834 3.57385 642.23 3.57385C659.224 3.57385 672.12 8.67189 680.917 18.868C689.715 28.7808 694.113 43.7917 694.113 63.9007V94.9137C687.315 94.9137 680.418 94.9137 673.42 94.9137C666.622 94.9137 659.724 94.9137 652.726 94.9137V81.7438C652.726 69.8484 652.127 61.6349 650.927 57.1033C649.727 52.5717 646.928 50.3059 642.53 50.3059C638.731 50.3059 636.132 52.1469 634.732 55.8288C633.333 59.2275 632.633 64.8919 632.633 72.8222C632.633 81.8854 633.833 88.8244 636.232 93.6392C638.831 98.1708 642.13 101.711 646.129 104.26C650.127 106.526 654.326 108.792 658.725 111.058C667.522 115.872 674.619 120.829 680.018 125.927C685.616 130.742 689.715 137.539 692.314 146.319C694.913 155.099 696.212 167.702 696.212 184.129C696.212 202.822 694.013 217.692 689.615 228.737C685.216 239.5 678.818 247.288 670.421 252.103C662.223 256.635 652.527 258.901 641.33 258.901Z" fill="#FAFAFA"/>
</svg>
