<svg width="668" height="261" viewBox="0 0 668 261" fill="none" xmlns="http://www.w3.org/2000/svg">
<path d="M26.2537 255.502L0.166748 4.42354H43.0453L57.4381 180.731L72.1308 4.42354H106.913L121.606 180.731L135.999 4.42354H179.177L152.79 255.502H104.215L89.5221 128.476L74.8294 255.502H26.2537Z" fill="#FAFAFA"/>
<path d="M239.253 260.6C229.058 260.6 220.062 258.901 212.266 255.502C204.67 251.82 198.673 244.598 194.275 233.835C190.077 223.073 187.978 206.929 187.978 185.404V57.5281C187.978 43.0837 190.077 31.7547 194.275 23.5412C198.673 15.3277 204.67 9.52157 212.266 6.12289C220.062 2.44097 229.058 0.600006 239.253 0.600006C249.448 0.600006 258.443 2.44097 266.239 6.12289C274.035 9.52157 280.132 15.3277 284.53 23.5412C289.128 31.7547 291.427 43.0837 291.427 57.5281V184.979C291.427 206.787 289.128 223.073 284.53 233.835C280.132 244.598 274.035 251.82 266.239 255.502C258.443 258.901 249.448 260.6 239.253 260.6ZM239.253 226.188C241.252 226.188 243.051 225.622 244.65 224.489C246.449 223.356 247.748 221.515 248.548 218.966C249.348 216.134 249.747 212.452 249.747 207.92V54.9791C249.747 50.7307 249.348 47.1904 248.548 44.3582C247.748 41.5259 246.449 39.5434 244.65 38.4105C243.051 37.2776 241.252 36.7111 239.253 36.7111C237.254 36.7111 235.455 37.2776 233.855 38.4105C232.256 39.5434 230.957 41.5259 229.957 44.3582C229.158 47.1904 228.758 50.7307 228.758 54.9791V207.92C228.758 212.452 229.158 216.134 229.957 218.966C230.957 221.515 232.256 223.356 233.855 224.489C235.455 225.622 237.254 226.188 239.253 226.188Z" fill="#FAFAFA"/>
<path d="M309.542 255.502V4.42354H378.207C390.601 4.42354 399.797 8.38868 405.794 16.319C411.791 23.966 414.789 34.1621 414.789 46.9072V85.9922C414.789 98.454 412.49 109.5 407.893 119.129C403.495 128.759 395.998 134.282 385.404 135.698V136.548C392.2 138.247 396.998 141.504 399.797 146.319C402.595 150.851 404.994 158.356 406.993 168.835L423.185 255.502H377.008L365.314 172.659C364.314 166.428 363.315 161.471 362.315 157.79C361.316 153.824 359.917 151.842 358.117 151.842H353.02V255.502H309.542ZM353.02 110.633H362.315C366.313 110.633 369.212 108.792 371.011 105.11C373.01 101.428 374.009 95.3386 374.009 86.8418V57.9529C374.009 49.4562 373.21 43.6501 371.611 40.5346C370.011 37.4192 367.413 35.8614 363.815 35.8614H353.02V110.633Z" fill="#FAFAFA"/>
<path d="M506.806 255.502L478.02 125.502L506.506 4.42354H550.883L518.5 125.077L551.783 255.502H506.806ZM436.041 255.502V4.42354H477.72V255.502H436.041Z" fill="#FAFAFA"/>
<path d="M612.294 258.901C601.1 258.901 591.505 256.776 583.509 252.528C575.513 248.28 569.416 240.774 565.218 230.012C561.22 219.249 559.221 203.814 559.221 183.705V168.41C566.417 168.41 573.614 168.41 580.81 168.41C588.206 168.41 595.503 168.41 602.699 168.41V188.803C602.699 197.866 603.099 204.805 603.898 209.62C604.698 214.151 605.797 217.267 607.197 218.966C608.796 220.665 610.695 221.515 612.894 221.515C616.292 221.515 618.791 219.674 620.39 215.992C622.189 212.027 623.089 204.38 623.089 193.051C623.089 183.138 621.989 175.916 619.79 171.384C617.791 166.57 614.393 162.604 609.596 159.489C604.798 156.373 598.401 152.55 590.405 148.018C583.209 143.203 577.412 137.681 573.014 131.45C568.616 125.219 565.418 117.43 563.419 108.084C561.62 98.7373 560.72 87.6915 560.72 74.9464C560.72 57.6697 562.319 43.7917 565.518 33.3124C568.716 22.8331 574.113 15.3277 581.71 10.7961C589.306 5.98126 599.8 3.57385 613.194 3.57385C630.185 3.57385 643.079 8.67189 651.874 18.868C660.67 28.7808 665.068 43.7917 665.068 63.9007V94.9137C658.271 94.9137 651.375 94.9137 644.378 94.9137C637.582 94.9137 630.685 94.9137 623.689 94.9137V81.7438C623.689 69.8484 623.089 61.6349 621.889 57.1033C620.69 52.5717 617.891 50.3059 613.494 50.3059C609.695 50.3059 607.097 52.1469 605.698 55.8288C604.298 59.2275 603.599 64.8919 603.599 72.8222C603.599 81.8854 604.798 88.8244 607.197 93.6392C609.795 98.1708 613.094 101.711 617.092 104.26C621.09 106.526 625.288 108.792 629.686 111.058C638.481 115.872 645.578 120.829 650.975 125.927C656.572 130.742 660.67 137.539 663.269 146.319C665.867 155.099 667.167 167.702 667.167 184.129C667.167 202.822 664.968 217.692 660.57 228.737C656.172 239.5 649.775 247.288 641.38 252.103C633.184 256.635 623.489 258.901 612.294 258.901Z" fill="#FAFAFA"/>
</svg>
