<svg width="69" height="45" viewBox="0 0 69 45" fill="none" xmlns="http://www.w3.org/2000/svg">
<path d="M22.8571 1.69277e-05C16.7951 1.69277e-05 10.9812 2.37054 6.6947 6.59011C2.40816 10.8097 0 16.5326 0 22.5C0 28.4674 2.40816 34.1904 6.6947 38.4099C10.9812 42.6295 16.7951 45 22.8571 45H40C33.9379 45 28.1241 42.6295 23.8376 38.4099C19.551 34.1904 17.1429 28.4674 17.1429 22.5C17.1429 16.5326 19.551 10.8097 23.8376 6.59011C28.1241 2.37054 33.9379 1.69277e-05 40 1.69277e-05H22.8571ZM57.5 0V16.875H34.6429V28.125H57.5V45H68.9286V0H57.5Z" fill="#FAFAFA"/>
</svg>
