<svg width="884" height="260" viewBox="0 0 884 260" fill="none" xmlns="http://www.w3.org/2000/svg">
<path d="M0.711304 254.902L28.917 3.82353H89.8292L117.435 254.902H70.9254L67.0246 213.693H49.021L45.7203 254.902H0.711304ZM49.3211 184.804H67.0246L58.3229 52.6797L49.3211 184.804Z" fill="#FAFAFA"/>
<path d="M129.247 254.902V3.82353H195.861C207.663 3.82353 216.465 7.78867 222.266 15.719C228.067 23.366 230.968 33.5621 230.968 46.3072V74.3464C230.968 81.7102 230.168 88.5076 228.567 94.7386C227.167 100.686 224.967 105.643 221.966 109.608C219.765 112.723 217.065 115.131 213.864 116.83C210.664 118.529 207.463 119.662 204.262 120.229V120.654C207.263 120.654 210.164 121.22 212.964 122.353C215.965 123.486 219.065 125.752 222.266 129.15C225.667 132.832 228.367 137.93 230.368 144.444C232.568 150.959 233.668 159.031 233.668 168.66V202.222C233.668 215.817 231.968 226.438 228.567 234.085C225.367 241.732 220.566 247.113 214.164 250.229C207.963 253.344 200.462 254.902 191.66 254.902H129.247ZM170.956 224.739H182.058C184.058 224.739 185.759 224.031 187.159 222.614C188.559 221.198 189.659 218.649 190.46 214.967C191.26 211.002 191.66 205.621 191.66 198.824V170.359C191.66 160.163 190.76 153.508 188.959 150.392C187.159 147.277 184.558 145.719 181.158 145.719H170.956V224.739ZM170.956 108.758H180.558C183.558 108.758 186.059 106.917 188.059 103.235C190.059 99.2702 191.06 91.9063 191.06 81.1438V57.3529C191.06 49.1394 190.26 43.4749 188.659 40.3595C187.059 36.9608 184.858 35.2614 182.058 35.2614H170.956V108.758Z" fill="#FAFAFA"/>
<path d="M299.778 260C289.576 260 280.574 258.301 272.772 254.902C265.171 251.22 259.169 243.998 254.769 233.235C250.568 222.473 248.467 206.329 248.467 184.804V56.9281C248.467 42.4837 250.568 31.1547 254.769 22.9412C259.169 14.7277 265.171 8.92156 272.772 5.52288C280.574 1.84096 289.576 0 299.778 0C309.98 0 318.981 1.84096 326.783 5.52288C334.585 8.92156 340.686 14.7277 345.087 22.9412C349.688 31.1547 351.988 42.4837 351.988 56.9281V184.379C351.988 206.187 349.688 222.473 345.087 233.235C340.686 243.998 334.585 251.22 326.783 254.902C318.981 258.301 309.98 260 299.778 260ZM299.778 225.588C301.778 225.588 303.578 225.022 305.179 223.889C306.979 222.756 308.279 220.915 309.079 218.366C309.88 215.534 310.28 211.852 310.28 207.32V54.3791C310.28 50.1307 309.88 46.5904 309.079 43.7582C308.279 40.9259 306.979 38.9434 305.179 37.8105C303.578 36.6776 301.778 36.1111 299.778 36.1111C297.777 36.1111 295.977 36.6776 294.377 37.8105C292.776 38.9434 291.476 40.9259 290.476 43.7582C289.676 46.5904 289.276 50.1307 289.276 54.3791V207.32C289.276 211.852 289.676 215.534 290.476 218.366C291.476 220.915 292.776 222.756 294.377 223.889C295.977 225.022 297.777 225.588 299.778 225.588Z" fill="#FAFAFA"/>
<path d="M420.826 260C413.225 260 406.323 259.15 400.122 257.451C393.921 256.035 388.52 253.061 383.919 248.529C379.518 243.998 376.017 237.059 373.417 227.712C371.016 218.083 369.816 205.196 369.816 189.052V3.82353H411.524V206.046C411.524 210.577 411.924 214.259 412.725 217.092C413.525 219.641 414.625 221.481 416.025 222.614C417.425 223.464 419.026 223.889 420.826 223.889C422.626 223.889 424.227 223.464 425.627 222.614C427.227 221.481 428.428 219.641 429.228 217.092C430.028 214.259 430.428 210.577 430.428 206.046V3.82353H471.836V188.627C471.836 204.771 470.636 217.658 468.236 227.288C465.835 236.917 462.334 243.998 457.734 248.529C453.333 253.061 447.932 256.035 441.53 257.451C435.329 259.15 428.428 260 420.826 260Z" fill="#FAFAFA"/>
<path d="M510.633 254.902V45.0327H484.228V3.82353H578.747V45.0327H552.042V254.902H510.633Z" fill="#FAFAFA"/>
<path d="M638.236 254.902V3.82353H690.747L709.05 148.268L727.654 3.82353H779.865V254.902H743.257V73.9216L723.153 254.902H694.948L674.844 73.9216V254.902H638.236Z" fill="#FAFAFA"/>
<path d="M799.694 254.902V3.82353H883.711V45.0327H843.203V102.81H878.61V149.118H843.203V214.542H883.711V254.902H799.694Z" fill="#FAFAFA"/>
</svg>
