<svg width="790" height="260" viewBox="0 0 790 260" fill="none" xmlns="http://www.w3.org/2000/svg">
<path d="M53.4742 260C43.0703 260 33.967 258.301 26.1641 254.902C18.3612 251.22 12.159 243.998 7.55727 233.235C3.15564 222.473 0.954834 206.329 0.954834 184.804V56.9281C0.954834 42.4837 3.15564 31.1547 7.55727 22.9412C12.159 14.7277 18.3612 8.92156 26.1641 5.52288C34.1671 1.84096 43.2704 0 53.4742 0C64.0781 0 73.1814 1.84096 80.7842 5.52288C88.387 8.92156 94.1892 14.7277 98.1907 22.9412C102.392 31.1547 104.493 42.4837 104.493 56.9281V112.582H62.7776V54.3791C62.7776 49.281 62.3775 45.4575 61.5772 42.9085C60.7769 40.3595 59.6765 38.6601 58.276 37.8105C57.0755 36.6776 55.4749 36.1111 53.4742 36.1111C51.6735 36.1111 50.0729 36.6776 48.6724 37.8105C47.2719 38.6601 46.1715 40.3595 45.3712 42.9085C44.5709 45.4575 44.1708 49.281 44.1708 54.3791V207.32C44.1708 212.135 44.5709 215.959 45.3712 218.791C46.1715 221.623 47.2719 223.464 48.6724 224.314C50.0729 225.163 51.6735 225.588 53.4742 225.588C55.4749 225.588 57.0755 225.163 58.276 224.314C59.6765 223.464 60.7769 221.623 61.5772 218.791C62.3775 215.959 62.7776 212.135 62.7776 207.32V153.366H104.493V184.379C104.493 206.187 102.392 222.473 98.1907 233.235C94.1892 243.998 88.387 251.22 80.7842 254.902C73.1814 258.301 64.0781 260 53.4742 260Z" fill="#FAFAFA"/>
<path d="M171.263 260C161.059 260 152.056 258.301 144.253 254.902C136.65 251.22 130.648 243.998 126.246 233.235C122.045 222.473 119.944 206.329 119.944 184.804V56.9281C119.944 42.4837 122.045 31.1547 126.246 22.9412C130.648 14.7277 136.65 8.92156 144.253 5.52288C152.056 1.84096 161.059 0 171.263 0C181.467 0 190.47 1.84096 198.273 5.52288C206.076 8.92156 212.178 14.7277 216.58 22.9412C221.181 31.1547 223.482 42.4837 223.482 56.9281V184.379C223.482 206.187 221.181 222.473 216.58 233.235C212.178 243.998 206.076 251.22 198.273 254.902C190.47 258.301 181.467 260 171.263 260ZM171.263 225.588C173.264 225.588 175.064 225.022 176.665 223.889C178.466 222.756 179.766 220.915 180.566 218.366C181.367 215.534 181.767 211.852 181.767 207.32V54.3791C181.767 50.1307 181.367 46.5904 180.566 43.7582C179.766 40.9259 178.466 38.9434 176.665 37.8105C175.064 36.6776 173.264 36.1111 171.263 36.1111C169.262 36.1111 167.461 36.6776 165.861 37.8105C164.26 38.9434 162.96 40.9259 161.959 43.7582C161.159 46.5904 160.759 50.1307 160.759 54.3791V207.32C160.759 211.852 161.159 215.534 161.959 218.366C162.96 220.915 164.26 222.756 165.861 223.889C167.461 225.022 169.262 225.588 171.263 225.588Z" fill="#FAFAFA"/>
<path d="M241.613 254.902V3.82353H277.626L306.737 137.647V3.82353H343.05V254.902H307.037L278.226 132.549V254.902H241.613Z" fill="#FAFAFA"/>
<path d="M362.947 254.902V3.82353H398.96L428.071 137.647V3.82353H464.384V254.902H428.371L399.56 132.549V254.902H362.947Z" fill="#FAFAFA"/>
<path d="M484.281 254.902V3.82353H568.311V45.0327H527.797V102.81H563.21V149.118H527.797V214.542H568.311V254.902H484.281Z" fill="#FAFAFA"/>
<path d="M634.352 260C623.948 260 614.845 258.301 607.042 254.902C599.239 251.22 593.037 243.998 588.435 233.235C584.034 222.473 581.833 206.329 581.833 184.804V56.9281C581.833 42.4837 584.034 31.1547 588.435 22.9412C593.037 14.7277 599.239 8.92156 607.042 5.52288C615.045 1.84096 624.148 0 634.352 0C644.956 0 654.059 1.84096 661.662 5.52288C669.265 8.92156 675.067 14.7277 679.069 22.9412C683.27 31.1547 685.371 42.4837 685.371 56.9281V112.582H643.656V54.3791C643.656 49.281 643.255 45.4575 642.455 42.9085C641.655 40.3595 640.554 38.6601 639.154 37.8105C637.954 36.6776 636.353 36.1111 634.352 36.1111C632.552 36.1111 630.951 36.6776 629.55 37.8105C628.15 38.6601 627.05 40.3595 626.249 42.9085C625.449 45.4575 625.049 49.281 625.049 54.3791V207.32C625.049 212.135 625.449 215.959 626.249 218.791C627.05 221.623 628.15 223.464 629.55 224.314C630.951 225.163 632.552 225.588 634.352 225.588C636.353 225.588 637.954 225.163 639.154 224.314C640.554 223.464 641.655 221.623 642.455 218.791C643.255 215.959 643.656 212.135 643.656 207.32V153.366H685.371V184.379C685.371 206.187 683.27 222.473 679.069 233.235C675.067 243.998 669.265 251.22 661.662 254.902C654.059 258.301 644.956 260 634.352 260Z" fill="#FAFAFA"/>
<path d="M721.83 254.902V45.0327H695.42V3.82353H789.955V45.0327H763.245V254.902H721.83Z" fill="#FAFAFA"/>
</svg>
