<svg width="180" height="56" viewBox="0 0 180 56" fill="none" xmlns="http://www.w3.org/2000/svg">
<path d="M93.7139 15.5767H88.5007L85.5605 20.3063H90.7711L93.7139 15.5767ZM107.237 28.0212C104.506 28.2453 99.6815 30.6689 97.0535 35.9644C94.4256 41.2599 94.416 44.529 94.416 44.529C94.416 44.529 95.8019 43.0216 97.9266 41.4434C100.051 39.8651 101.633 39.3044 101.633 39.3044C101.633 39.3044 102.027 37.3601 103.008 35.3267C103.962 33.3487 105.476 31.2893 107.35 30.8221C111.147 29.8737 109.329 36.7501 106.54 41.234C105.04 43.6438 99.7225 50.5695 95.1443 50.5695C90.5661 50.5695 89.6826 46.1903 90.6481 42.0958C91.6127 38.0022 92.9481 32.801 99.6274 23.3504C106.307 13.8998 113.536 8.29713 117.721 5.9427C122.019 3.52598 123.771 4.58508 123.771 4.58508C123.771 4.58508 118.284 7.93804 115.162 11.972C112.177 15.8277 110.396 20.1662 111.782 22.2922C113.1 24.3178 117.749 24.3558 122.868 17.0235C127.921 9.78541 126.645 5.48151 126.645 5.48151C126.645 5.48151 127.255 5.28423 127.665 5.22971C130.129 4.90437 132.103 5.549 135.159 7.10391C138.361 8.73323 141.433 11.3464 145.642 13.4845C146.909 12.107 148.32 10.6438 149.803 9.21606C144.129 6.47572 139.821 2.56985 134.256 2.19518C129.411 1.86984 125.592 3.62116 125.592 3.62116C125.592 3.62116 124.114 1.62496 119.556 2.27652C114.998 2.92894 100.955 8.754 89.0066 27.7365C78.2035 44.8993 83.2937 54.7349 91.0589 54.6224C99.4765 54.4996 107.484 45.2125 110.194 37.5539C112.904 29.8954 109.701 27.8196 107.237 28.0212ZM123.762 12.0732C122.347 15.4945 120.265 17.8853 118.215 19.711C115.586 22.0533 114.143 21.9746 113.519 21.5039C111.888 20.2717 114.076 15.6252 117.875 11.4701C121.657 7.33148 124.914 6.04394 124.914 6.04394C124.914 6.0924 125.456 7.97092 123.762 12.0732ZM170.637 7.08401C166.785 9.54227 161.445 11.7686 156.319 11.278C155.023 12.6131 153.632 14.1516 152.238 15.8346C161.134 17.5755 168.916 12.1078 173.059 7.44916C175.643 4.54441 176.919 1.95117 176.919 1.95117C176.919 1.95117 174.452 4.64911 170.637 7.08401Z" fill="#F40009"/>
<path d="M166.428 28.6538H160.947L160.056 30.0192C160.056 30.0192 158.938 28.0178 157.044 28.0498C153.8 28.1052 150.553 30.5626 146.779 34.8249C144.014 37.9477 139.429 44.9002 139.429 44.9002C139.429 44.9002 135.912 50.2779 134.133 49.8566C131.099 49.1375 136.678 38.0022 136.678 38.0022C136.678 38.0022 139.612 36.205 143.413 33.0321C145.806 31.035 148.56 28.2877 151.091 25.7412C153.392 23.4249 156.105 20.2796 158.683 16.834C158.023 16.9379 157.346 17.008 156.656 17.0417C154.344 20.0667 151.876 22.7742 149.776 24.9261C146.651 28.1294 143.776 30.7503 141.688 32.422C139.686 34.0228 138.402 34.7436 138.402 34.7436C138.402 34.7436 142.22 26.9639 148.585 18.3682C154.949 9.77337 163.861 1.78857 163.162 5.57677C162.962 6.66442 162.281 8.22452 161.253 10.0762C161.977 9.92652 162.68 9.73962 163.358 9.52676C164.892 6.38667 165.414 3.79862 164.27 3.05102C159.6 4.1604e-05 147.722 12.6245 141.768 19.9568C135.814 27.2892 130.426 38.4946 130.426 38.4946C130.426 38.4946 129.494 38.8822 128.464 39.076C127.814 39.1989 127.537 39.1721 127.431 39.1306C127.377 39.1089 127.371 39.0726 127.371 39.0726C127.371 39.0726 132.609 29.359 127.246 28.0706C122.072 26.828 113.105 36.3253 109.918 42.9317C107.73 47.4641 106.496 53.1697 110.247 54.5282C114.31 56 121.211 48.6417 122.833 46.5036C124.455 44.3646 126.481 40.8083 126.481 40.8083C126.481 40.8083 127.472 40.7564 128.013 40.6777C129.049 40.5262 129.534 40.3999 129.534 40.3999C129.534 40.3999 128.863 42.1452 128.136 44.3577C126.782 48.4834 125.56 54.3863 130.436 54.664C133.543 54.8397 138.101 49.2734 138.101 49.2734C138.101 49.2734 136.875 54.2228 140.907 54.664C143.884 54.9894 148.216 50.4268 148.216 50.4268C148.216 50.4268 147.272 54.3577 150.29 54.7038C152.874 55.0006 156.541 51.9955 159.548 48.6893C162.832 45.0793 165.351 41.1259 165.351 41.1259H163.442C163.442 41.1259 159.216 47.4892 156.249 49.192C153.813 50.5903 154.648 48.3501 155.386 47.1759C156.201 45.8806 166.426 28.6538 166.426 28.6546L166.428 28.6538ZM124.663 40.6387C124.588 40.8092 123.216 43.1775 121.748 45.0395C120.167 47.0461 117.272 50.066 115.532 49.4274C112.812 48.4288 115.805 42.5493 117.762 39.6973C119.719 36.8454 119.942 36.6524 119.997 36.578C120.052 36.5036 120.107 36.4352 120.155 36.5235C120.203 36.6117 120.825 37.7833 122.055 38.8C123.29 39.821 124.478 40.3601 124.574 40.3939C124.67 40.4276 124.739 40.4683 124.663 40.6379V40.6387ZM125.887 38.5197C125.715 38.8035 125.592 38.8173 125.235 38.723C124.607 38.5543 122.005 37.3611 122.025 34.7142C122.044 32.1348 125.709 29.6082 127.146 30.688C128.488 31.6952 127.847 34.2703 127.341 35.5838C126.836 36.8964 125.999 38.3336 125.887 38.5197ZM150.79 44.9002C150.066 45.8849 149.461 46.7744 148.915 47.3992C147.748 48.736 146.986 49.3582 146.308 49.5226C145.966 49.6048 145.542 49.5849 145.261 49.4161C144.265 48.8148 144.963 46.4733 146.697 43.3254C148.283 40.4484 150.116 37.5696 153.13 34.2556C156.156 30.9286 157.313 30.7685 158.16 30.8066C158.873 30.8369 158.974 31.5801 158.974 31.5801C158.974 31.5801 158.923 31.7523 158.81 31.947C157.811 33.6646 152.78 42.1928 150.789 44.9002H150.79ZM69.9306 49.0622C66.6067 47.0245 62.3425 45.7171 57.4433 45.6747C44.8226 45.5656 31.0811 51.6486 21.7738 51.7308C10.7963 51.8259 10.2494 43.4474 11.0632 38.8467C12.8145 28.935 19.9012 19.4792 24.4576 14.4935C29.0148 9.50773 33.7901 5.63907 37.7604 4.65005C41.7306 3.66104 41.3573 6.65663 40.8715 7.06591C40.37 7.07629 39.408 7.18359 38.862 7.55825C38.0072 8.14318 36.8655 9.2144 36.794 10.9129C36.671 13.5295 40.0796 13.9881 42.5435 8.5092C44.2243 4.77206 41.5588 2.23592 39.3452 1.99191C36.309 1.65619 31.6689 2.70317 26.1304 6.23438C16.4909 12.3796 3.59712 26.0259 3.2683 41.1666C3.08078 49.8038 8.7684 54.664 16.572 54.664C24.3756 54.664 34.9702 49.9232 45.3154 49.802C51.7208 49.7475 55.8664 51.9748 57.9658 55.602C57.9658 55.602 60.0521 52.1591 64.6983 51.9748C69.2948 51.7913 74.3553 53.0693 78.5096 55.9663C77.1237 53.9796 73.2058 51.0697 69.9298 49.0622H69.9306Z" fill="#F40009"/>
<path d="M41.189 15.0472C35.8982 13.7095 27.1117 22.6444 23.4092 29.9162C21.1257 34.4018 20.1244 40.0391 24.1898 41.5057C28.2551 42.9724 35.1525 35.6192 36.7748 33.4811C38.3971 31.3422 41.052 27.0582 41.052 27.0582C41.052 27.0582 41.8667 26.9024 42.4005 26.7796C42.9343 26.6567 43.7969 26.4127 43.7969 26.4127C43.7969 26.4127 42.7964 28.1813 41.8937 29.9941C40.8235 32.1434 37.9156 39.2984 43.53 41.4443C48.894 43.4942 56.5301 34.9461 56.9313 34.7843C56.9313 34.7843 54.6584 40.6093 58.1891 41.5057C62.0634 42.4887 66.3092 37.5644 66.3092 37.5644C66.3092 37.5644 65.4152 41.2609 68.4339 41.6078C73.8398 42.2282 83.4018 28.511 83.4018 28.511H81.4917C81.4917 28.511 76.6256 34.7228 74.2855 36.006C71.9454 37.2892 72.7871 35.0092 73.4229 33.9899C74.2341 32.6929 84.5714 15.5569 84.5714 15.5569H79.0896L78.4538 16.5545C78.4538 16.5545 77.3243 14.8439 75.436 14.9659C69.942 15.3215 63.4048 24.0089 60.53 27.8378C57.6561 31.6675 51.4557 38.9791 48.191 37.676C44.6333 36.2552 48.171 29.7327 50.5111 25.903C53.0588 21.7341 57.5742 17.605 59.3596 17.573C61.5566 17.5323 60.694 19.5077 60.694 19.5077C60.694 19.5077 59.0517 19.3044 57.8611 20.791C57.0186 21.8423 56.3208 23.3773 57.1215 24.2123C58.415 25.5612 60.0992 24.1915 61.1048 22.6634C64.2404 17.9018 61.9465 15.3925 59.4834 15.0265C54.2362 14.2451 49.4025 20.9329 45.7279 23.4179C43.1785 25.1407 42.1135 25.0066 42.1135 25.0066C42.1135 25.0066 46.5364 16.3988 41.1899 15.0464L41.189 15.0472ZM64.9434 30.4457C66.5299 27.5678 68.6912 24.7894 71.5041 21.3067C74.3169 17.8239 75.7168 17.5418 76.5637 17.5799C77.2763 17.6111 77.3775 18.3535 77.3775 18.3535C77.3775 18.3535 71.266 28.9177 69.0488 31.9323C68.3249 32.917 67.7056 33.7511 67.1596 34.3767C65.9926 35.7136 65.1449 36.3599 64.4907 36.5209C64.1488 36.6039 63.7249 36.5832 63.4432 36.4136C62.4471 35.8122 63.2068 33.5928 64.9425 30.4457H64.9434ZM39.0059 27.0175C38.93 27.1871 37.1847 30.0503 35.7177 31.9124C34.1372 33.919 31.2162 36.9509 29.4762 36.3123C26.7558 35.3138 29.6576 29.4749 31.6148 26.6238C33.572 23.7718 33.859 23.405 33.9148 23.3314C33.9698 23.2561 34.0238 23.1878 34.0718 23.2769C34.1198 23.3652 34.7425 24.6354 36.091 25.4903C37.4394 26.346 38.8218 26.7397 38.9178 26.7735C39.0137 26.8072 39.0826 26.8488 39.0067 27.0175H39.0059ZM41.2814 22.5605C40.7756 23.8748 40.3238 24.7029 40.2304 24.8984C40.0804 25.2117 39.7045 25.1113 39.7045 25.1113C39.2762 25.0923 35.9471 24.3386 35.9662 21.6917C35.9846 19.1123 39.6504 16.5857 41.0869 17.6656C42.4284 18.6728 41.7873 21.2478 41.2814 22.5605ZM162.304 51.5239C161.984 51.344 161.628 51.2548 161.236 51.2548C160.845 51.2548 160.489 51.3448 160.169 51.5239C159.848 51.7039 159.597 51.9479 159.413 52.2586C159.23 52.5683 159.138 52.9058 159.138 53.2692C159.138 53.6326 159.229 53.9761 159.413 54.2842C159.596 54.5914 159.848 54.8354 160.169 55.0145C160.489 55.1945 160.845 55.2836 161.236 55.2836C161.628 55.2836 161.984 55.1936 162.304 55.0145C162.624 54.8354 162.875 54.5914 163.059 54.2842C163.242 53.977 163.335 53.6387 163.335 53.2692C163.335 52.8997 163.243 52.5683 163.059 52.2586C162.876 51.9488 162.624 51.7039 162.304 51.5239ZM162.68 54.1033C162.541 54.3491 162.346 54.542 162.095 54.6831C161.845 54.8232 161.558 54.8933 161.236 54.8933C160.914 54.8933 160.627 54.8232 160.377 54.6831C160.127 54.5429 159.932 54.3499 159.793 54.1033C159.654 53.8576 159.584 53.579 159.584 53.2692C159.584 52.9594 159.654 52.6886 159.793 52.4429C159.931 52.1971 160.128 52.0042 160.381 51.8631C160.633 51.7221 160.919 51.6529 161.236 51.6529C161.554 51.6529 161.839 51.7229 162.092 51.8631C162.345 52.0033 162.541 52.1963 162.68 52.4429C162.818 52.6886 162.888 52.9646 162.888 53.2692C162.888 53.5738 162.818 53.8576 162.68 54.1033Z" fill="#F40009"/>
<path d="M162.025 53.2363C162.084 53.1402 162.114 53.0329 162.114 52.9153C162.114 52.7526 162.06 52.6167 161.954 52.506C161.848 52.3952 161.705 52.3398 161.527 52.3398H160.463V54.163H160.931V53.4985H161.288L161.719 54.163H162.255L161.772 53.4543C161.881 53.405 161.965 53.3323 162.025 53.2363ZM161.578 53.0442C161.543 53.0762 161.496 53.0918 161.437 53.0918H160.931V52.7379H161.437C161.496 52.7379 161.543 52.7543 161.578 52.7855C161.613 52.8175 161.63 52.8607 161.63 52.9144C161.63 52.968 161.613 53.0113 161.578 53.0433V53.0442Z" fill="#F40009"/>
</svg>
