<svg width="180" height="151" viewBox="0 0 180 151" fill="none" xmlns="http://www.w3.org/2000/svg">
<path d="M154.32 97.7214L154.245 97.9319C144.893 125.327 119.107 143.698 90.0375 143.698C60.9675 143.698 35.1375 125.289 25.8225 97.9018L25.7475 97.6838H5.325V100.158L13.8225 101.158C19.0725 101.76 20.175 104.091 21.6075 107.023L21.9675 107.745C34.2525 134.028 60.9975 151 90.0675 151C119.145 151 145.89 134.028 158.175 107.783L158.535 107.069C159.96 104.136 161.07 101.805 166.32 101.196L174.825 100.188V97.7214H154.32ZM25.8225 53.0305C35.175 25.6354 60.9675 7.23416 90.0375 7.23416C119.107 7.23416 144.93 25.6354 154.253 53.0305L154.327 53.241H174.788V50.7745L166.283 49.7743C161.033 49.1652 159.93 46.8416 158.497 43.9013L158.145 43.1794C145.86 16.9725 119.1 0 90.0375 0C60.93 0 34.215 16.9725 21.93 43.2546L21.57 43.969C20.145 46.9017 19.035 49.2329 13.785 49.842L5.2875 50.8422V53.3162H25.7175L25.8225 53.0305ZM129.788 64.9571L116.715 85.9752H122.355L124.68 82.2153H139.927L142.252 85.9752H147.855L134.783 64.9571H129.788ZM137.535 78.2372H127.073L132.322 69.7849L137.535 78.2372ZM158.61 70.221L174.143 85.9752H180V64.9571H175.395V80.6361L159.93 64.9571H153.967V85.9752H158.61V70.221ZM0 85.9752H4.6425V70.221L20.2125 85.9752H26.07V64.9571H21.4275V80.6361L5.9625 64.9571H0V85.9752ZM36.3225 64.9571H40.965V85.9752H36.315L36.3225 64.9571ZM69.9675 81.531C69.8175 81.5686 69.2475 81.5686 69.0375 81.5686H50.5725V85.87H69.3225C69.465 85.87 70.575 85.87 70.785 85.8324C74.61 85.4714 76.3575 82.283 76.3575 79.4931C76.3575 76.628 74.535 73.5523 71.07 73.229C70.395 73.1538 69.825 73.1538 69.57 73.1538H57.3225C56.8675 73.1686 56.4123 73.1332 55.965 73.0485C54.9975 72.7928 54.645 71.9355 54.645 71.2212C54.645 70.5744 54.9975 69.7172 55.995 69.4314C56.4188 69.3415 56.8523 69.3062 57.285 69.3261H74.9625V65.0999H57C56.25 65.0999 55.68 65.13 55.215 65.2052C53.7519 65.3858 52.408 66.1055 51.4446 67.2243C50.4813 68.3431 49.9673 69.7811 50.0025 71.2588C50.0025 73.8381 51.6075 76.8461 55.14 77.3499C55.785 77.4176 56.6775 77.4176 57.075 77.4176H69C69.2175 77.4176 69.75 77.4176 69.855 77.4552C71.2125 77.6281 71.6775 78.6358 71.6775 79.5307C71.689 80.0169 71.5207 80.4902 71.205 80.8595C70.8893 81.2288 70.4485 81.468 69.9675 81.531ZM104.895 81.531C104.745 81.5686 104.175 81.5686 103.928 81.5686H85.5V85.87H104.25C104.392 85.87 105.503 85.87 105.713 85.8324C109.537 85.4714 111.285 82.283 111.285 79.4931C111.285 76.628 109.463 73.5523 105.998 73.229C105.323 73.1538 104.752 73.1538 104.497 73.1538H92.25C91.795 73.1686 91.3398 73.1332 90.8925 73.0485C89.925 72.7928 89.5725 71.9355 89.5725 71.2212C89.5725 70.5744 89.925 69.7172 90.9225 69.4314C91.3463 69.3415 91.7798 69.3062 92.2125 69.3261H109.89V65.0999H91.9275C91.1775 65.0999 90.6075 65.13 90.1425 65.2052C88.6794 65.3858 87.3355 66.1055 86.3721 67.2243C85.4088 68.3431 84.8948 69.7811 84.93 71.2588C84.93 73.8381 86.535 76.8461 90.075 77.3499C90.7125 77.4176 91.605 77.4176 92.0025 77.4176H103.928C104.145 77.4176 104.677 77.4176 104.783 77.4552C106.14 77.6281 106.605 78.6358 106.605 79.5307C106.608 80.0148 106.437 80.4838 106.123 80.8513C105.809 81.2189 105.373 81.4603 104.895 81.531Z" fill="black"/>
</svg>
