<svg width="180" height="180" viewBox="0 0 180 180" fill="none" xmlns="http://www.w3.org/2000/svg">
<path fill-rule="evenodd" clip-rule="evenodd" d="M44.4659 67.459V112.391H58.9747V67.459H44.4659ZM56.6149 69.8188V110.031H46.8247V69.8188H56.6149ZM28.3005 89.9753C27.5226 89.7232 27.7234 88.921 28.5769 88.8958C31.7892 88.8454 39.0189 85.8338 38.4166 77.7759C37.8638 70.5462 33.7475 67.459 26.6691 67.459H21.2221V85.5826C21.2221 86.988 21.1717 87.5147 18.6616 87.9415L24.8369 112.391H40.2487L35.2042 96.8782C34.1994 93.7909 31.6389 91.0287 28.3005 89.9753ZM2.64648 112.39H15.5995V67.459H2.64648V112.39ZM121.703 72.7556H120.875C119.067 72.7556 116.633 74.6886 116.633 77.0223V102.853C116.633 105.036 118.441 106.868 120.472 106.868H122.28C124.138 106.868 126.12 105.112 126.12 103.179V77.223C126.121 75.1145 124.388 72.7556 121.703 72.7556ZM123.712 102.727C123.712 103.479 122.958 104.458 122.105 104.484H120.499C119.62 104.459 119.018 103.655 119.018 102.828V76.9728C119.094 76.1445 120.022 75.2657 120.826 75.1397C121.001 75.1154 121.178 75.1154 121.378 75.1154C121.679 75.1154 121.981 75.1397 122.232 75.2153C123.135 75.4917 123.713 76.3443 123.736 77.2483L123.712 102.727ZM163.197 67.459V82.8465H158.528V67.459H144.345V112.391H158.528V93.5649H163.197V112.391H177.354V67.459H163.197ZM174.994 110.031H165.556V91.18H156.143V110.032H146.706V69.8188H156.143V85.2063H165.556V69.8188H174.994V110.031Z" fill="#CC2229"/>
<path fill-rule="evenodd" clip-rule="evenodd" d="M122.581 65.626H120.876C113.572 65.626 104.786 68.5881 104.559 78.4025V101.672C104.559 111.787 114.424 114.372 120.876 114.372H122.658C130.063 114.372 138.27 109.478 138.27 101.446V78.6547C138.269 70.3455 130.865 65.626 122.581 65.626ZM135.886 78.679L135.861 102.048L135.735 103.154C135.383 104.685 134.807 105.814 133.878 107.044L133.125 107.897C131.77 109.177 130.364 110.056 128.657 110.809C127.476 111.26 126.322 111.587 125.093 111.813L123.862 111.963C123.034 112.014 122.207 112.014 121.378 112.014H120.877C118.592 111.989 116.458 111.688 114.3 111.01L113.12 110.583C111.438 109.829 110.106 108.976 108.877 107.596C108.53 107.153 108.219 106.683 107.949 106.19C107.471 105.186 107.222 104.283 107.044 103.178L106.944 101.646L106.969 77.6994C107.044 76.9962 107.145 76.3435 107.321 75.6412C107.622 74.6626 107.972 73.8586 108.525 72.9798L109.204 72.1263C110.284 70.9469 111.439 70.1942 112.868 69.5163C114.02 69.0437 115.214 68.6822 116.434 68.4368C118.064 68.1352 119.721 68.01 121.378 67.9848C122.232 67.9848 123.085 68.01 123.963 68.0605L125.295 68.2108C127.429 68.5619 129.285 69.14 131.144 70.2447L132.097 70.8974C133.277 71.8761 134.131 72.8556 134.858 74.1854C135.285 75.0641 135.537 75.8672 135.737 76.8206C135.835 77.4491 135.886 78.0271 135.886 78.679ZM84.1262 65.626H79.9091C72.2536 65.626 65.0249 71.4745 65.0249 78.1009V102.073C65.0249 109.202 72.982 114.372 79.9091 114.372H84.1262C92.9864 114.372 98.9105 108.6 98.9105 101.923V92.6602H84.1262V102.55C84.1262 103.63 83.3484 104.583 82.0186 104.583H81.8673C80.9139 104.583 79.9091 103.58 79.9091 102.626V76.9467C79.9091 75.8681 81.0895 75.1146 81.943 75.1146H82.3445C83.1728 75.1146 84.1262 76.0176 84.1262 76.8459V85.706H98.9105V79.9835C98.9105 71.425 92.837 65.626 84.1262 65.626ZM95.6216 75.0146C96.0736 76.2202 96.3491 77.3492 96.5003 78.6295C96.6003 80.1861 96.5498 81.7671 96.5498 83.3238H86.5112V76.7478C86.4701 76.1902 86.3254 75.6452 86.0845 75.1407C85.4065 73.9613 84.5278 73.2329 83.2232 72.8566C82.7965 72.7809 82.3949 72.7314 81.9934 72.7567C81.4667 72.7567 80.9634 72.8566 80.4367 73.0321L79.7588 73.3328C78.8305 73.9109 78.3029 74.488 77.8267 75.4666L77.5755 76.42L77.5251 102.702C77.5755 103.329 77.7006 103.781 77.9266 104.358C78.7045 105.789 79.784 106.617 81.3901 106.919L81.9934 106.943H82.0933C82.8964 106.919 83.4997 106.767 84.2271 106.416C85.3318 105.738 85.9341 105.011 86.3357 103.781L86.486 102.952L86.5112 95.0451H96.5498V101.898C96.534 102.393 96.4925 102.887 96.4256 103.379C96.0988 105.086 95.4461 106.416 94.3918 107.771L93.6895 108.525C92.3841 109.73 91.0543 110.508 89.3968 111.136L88.1912 111.512C86.8503 111.83 85.4782 111.999 84.1001 112.014H81.9915C80.913 112.039 79.8577 112.039 78.8035 111.963C77.6597 111.826 76.5328 111.574 75.4398 111.21C73.532 110.532 71.9511 109.629 70.4448 108.298L69.6669 107.52C68.6126 106.29 67.9356 105.111 67.5331 103.529L67.408 102.575L67.3828 78.1271C67.408 77.6499 67.4332 77.1979 67.5341 76.7207C67.7444 75.7724 68.1091 74.8651 68.6136 74.0351C69.6427 72.4289 70.8977 71.2495 72.5039 70.1952L73.5339 69.5919C75.1543 68.7815 76.905 68.2631 78.7054 68.0605L79.9353 68.01C80.6132 68.01 81.3164 67.9848 81.9934 67.9848C83.6248 67.9848 85.231 67.9848 86.8633 68.236C88.5199 68.5619 89.9253 69.0643 91.3802 69.9178L92.3103 70.5706C93.5392 71.5754 94.3927 72.6035 95.1463 73.9846L95.6216 75.0146Z" fill="#CC2229"/>
</svg>
