<svg width="180" height="41" viewBox="0 0 180 41" fill="none" xmlns="http://www.w3.org/2000/svg">
<g clip-path="url(#clip0_46_1657)">
<path d="M172.06 4.54739H170.835V3.80664H174.074V4.54739H172.85V8.56732H172.06L172.06 4.54739ZM174.838 3.80664H176.195L177.379 7.82763H177.459L178.644 3.80664H180V8.56732H179.237V4.54739H179.157L177.959 8.56732H176.879L175.681 4.54739H175.602V8.56732H174.838L174.838 3.80664Z" fill="#231F20"/>
<path d="M123.367 21.5543C123.367 15.3807 121.002 9.91567 114.707 9.91567C108.399 9.91567 105.969 15.3809 105.969 21.5543C105.969 27.7277 108.399 33.1988 114.707 33.1988C121.002 33.1988 123.367 27.7279 123.367 21.5543ZM132.65 21.5543C132.65 32.1093 125.216 39.914 114.689 39.914C103.972 39.914 96.6865 32.4367 96.6865 21.5602C96.6865 11.2727 103.877 3.19434 114.689 3.19434C125.216 3.19434 132.65 11.005 132.65 21.5543ZM60.9872 18.149H44.7065C44.8687 16.9742 45.2159 15.8328 45.7349 14.7676C47.1961 11.8266 49.9525 9.95122 53.3965 9.95122C58.1119 9.95122 60.9872 13.1661 60.9872 17.9348V18.149ZM69.4367 18.2916C69.0043 13.5233 67.2613 9.67757 64.333 7.08178C61.5294 4.5753 57.765 3.21233 53.0973 3.21233C49.6562 3.21233 45.3084 4.40895 42.1075 7.04601C38.2987 10.2016 35.3348 15.1305 35.3348 21.7744C35.3348 27.5014 37.193 32.1093 40.5216 35.2228C43.7759 38.2827 48.3965 39.9439 54.108 39.9439C58.7136 39.9439 64.2797 38.2054 66.6508 36.7229C67.4923 36.2111 67.7593 35.979 67.5488 35.1335L66.0519 30.8949C65.8861 30.2164 65.1097 30.0316 64.4929 30.3472C63.5521 30.8341 62.5865 31.2714 61.6002 31.657C59.5434 32.4251 57.3948 32.9487 55.3705 32.9487C51.0995 32.9487 48.6544 31.7817 46.7991 29.6151C45.6194 28.2458 44.9288 26.5251 44.7154 24.5251H68.3108C69.1579 24.5251 69.5436 23.9355 69.5436 22.9175V21.2146C69.5436 20.3752 69.508 19.0832 69.4367 18.2916ZM77.9194 8.27248C80.5869 4.81932 84.7539 3.24174 91.5707 3.24174C93.1831 3.2426 94.7915 3.40424 96.3721 3.72429C97.1722 3.91477 97.3029 4.5516 97.1486 5.37933L96.3426 9.36773C96.1647 10.1121 95.9512 10.3265 95.3705 10.3265C95.2098 10.325 95.0495 10.313 94.8904 10.2905C94.3271 10.2134 92.7207 10.0405 92.0569 10.0405C88.6662 10.0405 87.0598 10.8918 85.8476 12.1661C84.4397 13.684 84.3982 15.9166 84.3982 19.9111V37.6459C84.3982 38.8126 83.8886 39.4675 82.6436 39.4675H77.2495C76.0995 39.4675 75.6015 38.896 75.5067 37.6459V20.2326C75.5067 13.8924 75.8713 10.9216 77.9196 8.27248M151.037 15.6543C152.243 14.3866 155.056 10.8979 158.171 4.99245C158.702 3.98016 159.179 3.72429 159.875 3.72429H165.661C166.189 3.72429 166.811 3.98016 166.473 4.99245C164.173 11.8444 158.921 17.863 156.016 20.9708C159.179 23.9829 164.801 31.115 167.442 38.1161C167.676 38.747 167.561 39.4675 166.242 39.4675H159.318C158.607 39.4675 158.035 39.4019 157.558 38.2054C155.842 33.9129 153.16 29.4007 150.095 26.4356C146.74 30.0077 144.197 34.4012 142.484 38.2054C142.057 39.1401 141.642 39.4675 140.726 39.4675H134.375C133.945 39.4675 133.512 38.9733 133.794 38.2054C135.682 33.0022 139.443 26.5249 144.837 21.6493C140.593 16.5176 136.529 10.2609 134.929 4.99245C134.683 4.20048 135.104 3.72429 135.696 3.72429H143.151C143.966 3.72429 144.386 4.05762 144.784 4.99245C146.621 9.28455 149.126 13.3745 151.037 15.6543ZM17.5162 15.6543C18.7195 14.3866 21.5294 10.8979 24.6563 4.99245C25.1808 3.98016 25.649 3.72429 26.3544 3.72429H32.1516C32.6675 3.72429 33.2896 3.98016 32.952 4.99245C30.6401 11.8444 25.3941 17.863 22.4897 20.9708C25.6608 23.989 31.2803 31.1209 33.9359 38.1161C34.1614 38.747 34.0426 39.4675 32.712 39.4675H25.7824C25.068 39.4675 24.5258 39.4019 24.0369 38.2054C22.3237 33.9129 19.6326 29.4007 16.5738 26.4417C13.2219 30.0079 10.6758 34.4073 8.95367 38.2054C8.54169 39.1401 8.12696 39.4675 7.20795 39.4675H0.859392C0.432657 39.4675 2.08169e-05 38.9733 0.27271 38.2054C2.16362 33.0022 5.92775 26.5249 11.304 21.6493C7.09542 16.5176 3.01119 10.2609 1.41088 4.99245C1.1677 4.20048 1.59422 3.72429 2.17837 3.72429H9.63265C10.4444 3.72429 10.8598 4.05762 11.2715 4.99245C13.0944 9.28455 15.6076 13.3745 17.5162 15.6543Z" fill="#D92231"/>
</g>
<defs>
<clipPath id="clip0_46_1657">
<rect width="180" height="41" fill="white"/>
</clipPath>
</defs>
</svg>
