<svg width="180" height="180" viewBox="0 0 180 180" fill="none" xmlns="http://www.w3.org/2000/svg">
<path fill-rule="evenodd" clip-rule="evenodd" d="M54.5717 131.022V122.419H59.1259V123.679H56.1779V125.859H58.9429V127.122H56.1779V131.022H54.5717ZM125.402 131.091V122.488H127.009V131.091H125.402ZM146.258 122.443H151.615V123.706H149.745V131.046H148.139V123.706H146.258V122.443ZM7.94122 131.091V122.488H9.5474V131.091H7.94122ZM104.085 122.41H105.464V131.015H103.596L101.356 124.533V131.015H100.014V122.41H101.898L104.1 128.962H104.076L104.085 122.41ZM170.454 131.091V122.488H172.059V131.091H170.454ZM78.3786 131.091V122.488H79.9847V131.091H78.3786ZM33.3786 122.41H34.756V131.015H32.8864L30.649 124.533V131.015H29.3071V122.41H31.1897L33.3907 128.962H33.3683L33.3786 122.41ZM89.986 48.9092C55.3589 48.9092 27.2872 63.0622 27.2872 80.5191C27.2872 94.6534 45.6929 106.621 71.0807 110.665L89.986 65.5079L108.891 110.664C134.281 106.62 152.684 94.6525 152.684 80.5182C152.684 63.0622 124.614 48.9092 89.986 48.9092ZM118.778 96.3838L89.986 62.9483L61.3027 96.2895C47.1777 92.3469 37.8674 85.445 37.8674 76.9603C37.8674 63.502 61.0244 50.8833 89.9309 50.8833C118.839 50.8833 142.55 63.502 142.55 76.9603C142.55 85.5104 133.091 92.4561 118.778 96.3838Z" fill="black"/>
</svg>
