<svg width="180" height="180" viewBox="0 0 180 180" fill="none" xmlns="http://www.w3.org/2000/svg">
<g clip-path="url(#clip0_46_1609)">
<path d="M115.5 137.406H122.199V138.957H115.5V137.406ZM4.07898 128.001L3.48022 143.566V143.836C3.48022 145.154 3.86829 145.426 5.969 145.574V146.296C4.43995 146.178 3.83808 146.148 2.99997 146.148C2.15953 146.148 1.56 146.178 0.000732422 146.296V145.574C2.09911 145.426 2.40043 145.185 2.46008 143.566L3.08982 128.842V128.665C3.08982 127.283 2.66922 126.984 0.601819 126.865V126.113C1.76914 126.204 2.21918 126.234 3.05962 126.234C4.01165 126.243 4.96333 126.194 5.90936 126.086L11.4849 141.258L17.1511 126.086C18.5027 126.204 19.1317 126.234 20.0318 126.234C20.7785 126.234 21.2603 126.204 22.399 126.113V126.865C20.361 126.984 19.9086 127.283 19.9086 128.632V128.842L20.2394 143.566C20.2719 145.185 20.5399 145.423 22.6995 145.574V146.296C20.811 146.116 20.0899 146.054 18.9512 146.054C17.8103 146.054 17.0907 146.113 15.2022 146.296V145.574C17.2402 145.456 17.6902 145.124 17.6902 143.718V143.57L17.423 128.035L12.4733 141.408L12.1147 142.399L11.6948 143.506L11.3029 144.65L10.9737 145.638H10.5236L10.1952 144.679L9.77382 143.506L9.35476 142.338L8.99458 141.289L4.07898 128.001ZM26.5942 137.687C26.8947 134.239 28.0326 132.472 29.9521 132.472C31.9017 132.472 32.8909 134.151 33.0698 137.687H26.5942ZM30.4935 145.543C27.7646 145.543 26.5632 143.444 26.5361 138.766H35.4718C35.4106 134.148 33.5214 131.689 29.9823 131.689C26.3866 131.689 24.1364 134.598 24.1364 139.217C24.1364 143.834 26.3874 146.532 30.2534 146.532C33.1922 146.532 35.1124 144.701 35.4997 141.614H34.2991C33.9397 144.162 32.6205 145.543 30.4935 145.543ZM37.2557 132.798V132.26C38.9637 132.11 39.9846 131.931 41.2131 131.57C41.3634 132.681 41.4231 133.158 41.4827 134.059V134.39C42.1442 132.681 43.4308 131.69 44.9916 131.69C46.4897 131.69 47.6005 132.681 47.6005 134.121C47.6005 134.991 47.0908 135.56 46.341 135.56C45.6516 135.56 45.1125 135.139 45.1125 134.541C45.1125 134.481 45.1435 134.364 45.1706 134.239L45.2302 133.941V133.668C45.2302 133.248 44.87 132.949 44.3301 132.949C42.7732 132.949 41.784 134.838 41.784 137.807V144.072C41.784 145.365 42.0822 145.604 43.9126 145.693V146.293C42.2612 146.145 41.6322 146.112 40.5826 146.112C39.5036 146.112 38.8746 146.145 37.2263 146.293V145.693C39.0536 145.604 39.3836 145.365 39.3836 144.072V134.271C39.3549 132.98 39.2031 132.832 37.6461 132.801L37.2557 132.798ZM59.0715 131.422V136.371H58.41C57.8701 133.76 56.7616 132.501 54.9336 132.501C52.6826 132.501 51.365 134.931 51.365 139.219C51.365 143.416 52.5339 145.545 54.8422 145.545C56.7012 145.545 57.8104 144.227 58.1706 141.589H59.3991C59.0087 144.798 57.3 146.536 54.6028 146.536C51.1241 146.536 48.7569 143.597 48.7569 139.221C48.7569 134.751 51.1543 131.694 54.6927 131.694C55.9824 131.694 56.7918 132.024 57.7531 132.954L58.5602 131.424H59.0723L59.0715 131.422ZM63.9948 137.687C64.2946 134.239 65.4325 132.472 67.3527 132.472C69.3016 132.472 70.2907 134.151 70.4689 137.687H63.9948ZM67.8926 145.543C65.1637 145.543 63.9654 143.444 63.9352 138.766H72.8694C72.8097 134.148 70.9189 131.689 67.3837 131.689C63.7834 131.689 61.5339 134.598 61.5339 139.217C61.5339 143.834 63.7826 146.532 67.6532 146.532C70.5913 146.532 72.5107 144.701 72.8988 141.614H71.6997C71.3403 144.162 70.0212 145.543 67.8926 145.543ZM81.173 145.725C79.0142 145.725 77.8756 143.474 77.8756 139.189C77.8756 134.843 78.9244 132.713 81.084 132.713C83.304 132.713 84.4434 134.991 84.4434 139.402C84.4426 143.565 83.3326 145.725 81.173 145.725ZM86.8098 143.174V125.863C85.3109 126.265 83.9631 126.502 82.2846 126.682V127.193C84.1731 127.193 84.4132 127.403 84.4132 128.962V134.208C83.304 132.41 82.4341 131.869 80.8144 131.869C77.6068 131.869 75.3566 134.897 75.3566 139.214C75.3566 143.533 77.6339 146.558 80.9043 146.558C82.613 146.558 83.7827 145.779 84.6216 144.101C84.7408 145.241 84.7408 145.36 85.0422 146.498C86.2699 146.107 86.7811 145.988 88.5503 145.779L88.9996 145.72V145.21C86.9903 145.151 86.8098 145.003 86.8098 143.174ZM92.5953 137.687C92.895 134.239 94.0337 132.472 95.9539 132.472C97.9028 132.472 98.8904 134.151 99.0701 137.687H92.5953ZM96.4938 145.543C93.7633 145.543 92.5666 143.444 92.5348 138.766H101.47C101.409 134.148 99.5209 131.689 95.9841 131.689C92.3838 131.689 90.1359 134.598 90.1359 139.217C90.1359 143.834 92.3838 146.532 96.2537 146.532C99.1917 146.532 101.11 144.701 101.498 141.614H100.299C99.9415 144.162 98.6201 145.543 96.4938 145.543ZM104.016 146.563V141.554L104.676 141.525C105.214 144.255 106.474 145.574 108.574 145.574C110.341 145.574 111.662 144.404 111.662 142.878C111.662 141.859 111.093 141.17 109.622 140.509L108.483 139.997L107.104 139.368C104.913 138.35 104.224 137.509 104.224 135.77C104.224 133.4 106.082 131.784 108.722 131.784C109.892 131.784 110.763 132.053 111.781 132.739L112.289 131.511H112.829V136.158H112.138C111.866 133.759 110.879 132.622 108.991 132.622C107.402 132.622 106.17 133.701 106.17 135.11C106.17 136.309 106.62 136.701 109.349 137.899L110.609 138.44C112.886 139.426 113.698 140.389 113.698 142.158C113.698 144.677 111.688 146.474 108.873 146.474C107.492 146.474 106.412 146.114 105.274 145.215L104.551 146.563H104.016ZM130.374 136.217C131.962 136.217 132.861 136.488 133.552 137.176C134.242 137.869 134.633 139.157 134.633 140.594C134.633 143.592 133.132 145.273 130.464 145.273H129.385C127.795 145.273 127.526 145.031 127.526 143.712V136.215L130.374 136.217ZM127.524 127.131H130.073C132.592 127.131 133.701 128.363 133.701 131.15C133.701 132.529 133.372 133.52 132.712 134.297C132.052 135.049 131.244 135.286 129.566 135.286H127.526V127.131H127.524V127.131ZM136.368 131.089C136.368 129.53 135.71 128.153 134.57 127.281C133.552 126.532 132.384 126.203 130.432 126.203H122.547V126.952C124.707 127.073 125.005 127.313 125.005 128.931V143.473C125.005 145.093 124.763 145.3 122.547 145.483V146.204H130.132C132.35 146.204 133.551 145.932 134.812 145.153C136.31 144.194 137.299 142.365 137.299 140.479C137.299 138.856 136.609 137.389 135.44 136.492C134.812 136.013 134.151 135.739 133.07 135.532C135.231 134.718 136.368 133.189 136.368 131.089ZM142.193 137.687C142.495 134.239 143.633 132.472 145.554 132.472C147.501 132.472 148.492 134.151 148.67 137.687H142.193ZM146.094 145.543C143.365 145.543 142.163 143.444 142.135 138.766H151.071C151.011 134.148 149.121 131.689 145.582 131.689C141.984 131.689 139.735 134.598 139.735 139.217C139.735 143.834 141.984 146.532 145.851 146.532C148.789 146.532 150.709 144.701 151.098 141.614H149.898C149.541 144.162 148.222 145.543 146.094 145.543ZM152.657 132.918V132.41C154.396 132.168 155.416 131.931 156.613 131.51C156.765 132.203 156.856 132.98 156.914 134.119C157.994 132.498 159.222 131.781 160.963 131.781C162.763 131.781 164.32 132.707 164.922 134.178C165.223 134.899 165.372 135.737 165.372 136.875V144.072C165.372 145.362 165.672 145.602 167.5 145.691V146.291C165.911 146.14 165.312 146.111 164.232 146.111C163.121 146.111 162.523 146.14 160.962 146.291V145.691C162.581 145.633 162.971 145.332 162.971 144.133V136.786C162.971 134.178 162.192 133.127 160.274 133.127C158.233 133.127 157.155 134.418 157.155 136.875V144.133C157.155 145.332 157.547 145.633 159.107 145.691V146.291C157.547 146.14 156.948 146.111 155.867 146.111C154.818 146.111 154.187 146.14 152.628 146.291V145.691C154.455 145.602 154.757 145.362 154.757 144.072V134.359C154.726 133.127 154.547 132.949 153.049 132.949C152.956 132.949 152.808 132.918 152.657 132.918ZM168.665 146.204L176.79 132.83H173.101C171.154 132.83 170.671 133.248 169.593 135.948H168.996L169.686 132.05H180.001L171.844 145.423H175.351C177.392 145.423 178.23 144.615 179.13 141.885H179.76L178.981 146.204H168.665Z" fill="black"/>
<path d="M126.683 98.2057C130.678 91.5629 132.783 83.9555 132.772 76.2041C132.772 52.5812 113.621 33.4316 89.9988 33.4316C66.3759 33.4316 47.2264 52.582 47.2264 76.2041C47.2154 83.9557 49.3213 91.5632 53.317 98.2057L53.1613 98.3304L53.3472 98.2584C60.8337 110.672 74.4457 118.977 89.9988 118.977C105.553 118.977 119.163 110.672 126.649 98.2584L126.835 98.3304L126.683 98.2057ZM127.517 76.2041C127.524 82.7543 125.807 89.1911 122.538 94.8672L96.0778 73.5557L90.651 38.7051C111.069 39.0537 127.517 55.7028 127.517 76.2041ZM52.4851 76.2041C52.4851 55.7036 68.9321 39.0544 89.3497 38.7051L83.9229 73.5557L57.4627 94.8672C54.1945 89.1907 52.4779 82.7541 52.4851 76.2041ZM90.0004 113.719C76.6881 113.719 65.0034 106.779 58.3449 96.3258L90.0004 84.0794L121.656 96.3266C114.997 106.779 103.314 113.719 90.0004 113.719Z" fill="black"/>
</g>
<defs>
<clipPath id="clip0_46_1609">
<rect width="180" height="180" fill="white"/>
</clipPath>
</defs>
</svg>
