<svg width="180" height="178" viewBox="0 0 180 178" fill="none" xmlns="http://www.w3.org/2000/svg">
<g clip-path="url(#clip0_46_1612)">
<path d="M157.446 158.679V156.941H20.8598V158.679H157.446ZM15.9189 124.707H2.64648V126.771H4.32363C4.75599 126.771 5.42554 127.449 5.42554 127.876V132.867H13.5722V126.769H15.9189V124.707ZM55.2282 151.861V143.69H50.8262V147.187C50.8262 148.391 50.2491 149.799 49.1985 149.799H44.408C43.9756 149.799 43.3322 149.204 43.3322 148.779V139.636C43.3322 139.208 43.6628 138.875 44.0952 138.875H45.4539C45.8862 138.875 46.5464 139.561 46.5464 139.988V141.723H50.6039V133.525H46.6417V135.223C46.6417 135.651 45.9217 136.413 45.4894 136.413H44.0961C43.6637 136.413 43.3332 135.927 43.3332 135.498V127.666C43.3332 127.238 43.9766 126.773 44.4089 126.773H49.0734C49.6776 126.773 50.2098 127.317 50.2098 127.915V131.666H54.3018V124.707H32.3972V126.771H34.0743C34.5067 126.771 35.1753 127.449 35.1753 127.876V148.841C35.1753 149.269 34.5319 149.799 34.0995 149.799H32.4242V151.859L55.2282 151.861ZM63.3739 135.119L72.4656 151.861H80.49V127.799C80.49 127.371 81.1334 126.771 81.5658 126.771H83.242V124.707H74.2418V126.771H75.9264C76.3587 126.771 77.0031 127.368 77.0031 127.795V141.929L67.2381 124.707H57.108V126.771H58.7842C59.2175 126.771 59.887 127.416 59.887 127.844V148.809C59.887 149.238 59.2427 149.799 58.8113 149.799H57.1351V151.859H66.1353V149.799H64.4516C64.0183 149.799 63.3749 149.241 63.3749 148.815L63.3739 135.119ZM89.5499 134.535L85.076 148.905C84.9098 149.347 84.6483 149.802 84.2159 149.802H82.4697V151.862H90.8508L90.833 149.802H89.1596C88.7272 149.802 88.2725 149.338 88.3967 148.911L90.1719 142.508C90.2129 142.341 90.3231 142.193 90.4968 142.193H93.9025V139.694L91.4493 139.696C91.2747 139.696 91.0683 139.527 91.1216 139.357L92.4999 134.535H89.5499Z" fill="black"/>
<path d="M93.9034 142.192H97.0588C97.2325 142.192 97.3838 142.339 97.424 142.507L99.2001 148.91C99.3261 149.337 98.8695 149.801 98.4381 149.801H96.7619L96.7451 151.861H110.488V149.801H108.743C108.31 149.801 108.048 149.347 107.882 148.904L100.685 124.707H88.5769V126.771H89.9468C91.2094 126.776 91.6931 127.68 91.4428 128.573L89.549 134.533H92.499L93.8343 129.968L96.5443 139.352C96.5994 139.524 96.3547 139.694 96.181 139.694H93.9016V142.192H93.9034ZM131.127 145.538L131.129 127.887C131.129 127.459 131.794 126.773 132.227 126.773H133.895V124.709H125.539V126.773H127.215C127.647 126.773 128.311 127.475 128.311 127.902L128.309 145.633C128.254 150.499 119.409 151.009 119.354 145.435V127.866C119.354 127.438 120.018 126.773 120.45 126.773H122.119V124.709H108.442V126.773H110.12C110.553 126.773 111.217 127.45 111.217 127.879V145.621C111.216 154.365 131.127 154.83 131.127 145.538ZM146.765 127.854C146.765 127.426 147.44 126.771 147.874 126.771H149.554V124.707H135.837V126.771H137.515C137.947 126.771 138.617 127.416 138.617 127.844V148.809C138.617 149.237 137.974 149.799 137.542 149.799H136.178V151.859H157.442V143.657H153.038V147.154C153.038 148.357 152.463 149.797 151.412 149.797H147.839C147.405 149.797 146.763 149.171 146.763 148.743L146.765 127.854Z" fill="black"/>
<path d="M165.979 151.861H172.825V149.801H171.149C170.717 149.801 170.053 149.198 170.053 148.77V127.233C170.053 126.976 170.257 126.776 170.518 126.776C172.514 126.851 173.374 127.492 173.374 130.189V132.704H177.354V124.707H154.607V132.704H158.587V130.189C158.587 127.492 159.447 126.851 161.44 126.776C161.701 126.776 161.907 126.976 161.907 127.233V148.767C161.907 149.197 161.243 149.799 160.811 149.799H159.135V151.859L165.979 151.861ZM14.4276 138.694C14.7628 138.694 15.2232 139.028 15.4137 139.376L15.4408 139.401L20.9886 151.859H30.4987V149.799H29.831C29.2595 149.799 28.9719 149.088 28.6254 148.497L22.8563 138.442C26.3777 138.442 28.1436 135.7 28.1856 132.047C28.1436 128.359 26.4804 124.705 22.1363 124.705H15.9189V126.768H16.666C20.4918 126.768 20.5479 136.61 16.666 136.61H13.5722V132.865H5.42552V148.85C5.42552 149.277 4.78305 149.797 4.35069 149.797H2.67542V151.857H16.3363V149.797H14.6489C14.2165 149.797 13.5731 149.239 13.5731 148.812L13.5815 138.694H14.5172H14.4276V138.694ZM90.5603 89.7517L82.1942 104.085C81.9215 104.546 81.2211 104.153 81.4004 103.675L88.3649 87.8624L74.493 64.1039L55.484 64.1085C55.5083 64.356 55.6783 64.6829 55.7156 64.7734L80.1146 106.567C80.263 106.787 80.5507 107.089 80.9261 107.093H99.0133C99.3803 107.089 99.6716 106.851 99.7687 106.696L124.196 64.8279C124.274 64.7051 124.44 64.3348 124.646 63.8389H105.701L90.0112 90.6881L90.5603 89.7517Z" fill="black"/>
<path d="M102.974 63.9422H124.45C124.608 63.9431 124.761 63.8834 124.875 63.7757C124.99 63.668 125.059 63.5205 125.066 63.3641C125.092 62.8304 124.969 62.2384 124.704 61.7712L100.255 19.9446C99.9798 19.4921 99.4961 19.2991 98.9834 19.3222H81.0437C80.5413 19.3092 79.996 19.5198 79.7009 19.9399L79.6719 19.9843L55.3505 61.773C55.0573 62.2911 54.8789 62.9818 54.8397 63.5719C54.829 63.7332 54.8834 63.8921 54.9911 64.0136C55.0988 64.1352 55.2509 64.2095 55.414 64.2202L55.4542 64.2211H77.0881L89.4799 85.3385C89.5342 85.4308 89.6121 85.5074 89.7058 85.5605C89.7995 85.6137 89.9056 85.6416 90.0136 85.6414C90.1216 85.6412 90.2277 85.6129 90.3212 85.5595C90.4147 85.506 90.4923 85.4291 90.5463 85.3366L102.932 64.0235C102.948 63.9978 102.962 63.9705 102.974 63.9422ZM101.827 63.4786L90.0103 83.813L78.1237 63.5553L90.0122 43.1942L101.827 63.4786ZM77.0236 63.0012H56.1798C56.2433 62.7713 56.317 62.582 56.4272 62.3687L80.7169 20.6325L80.8523 20.5577C80.9037 20.5356 80.9728 20.5402 81.0241 20.5402C81.1119 20.542 99.0516 20.5402 99.0899 20.5365C99.1106 20.5333 99.1319 20.5356 99.1514 20.5432C99.1709 20.5508 99.1881 20.5635 99.201 20.5799L123.626 62.3696C123.688 62.4878 123.732 62.593 123.766 62.7214H102.808L90.5463 41.6696C90.4922 41.5769 90.4143 41.5 90.3206 41.4465C90.2269 41.3929 90.1206 41.3647 90.0124 41.3646C89.9042 41.3645 89.7979 41.3926 89.7041 41.4459C89.6103 41.4993 89.5323 41.5761 89.478 41.6687L77.0236 63.0012Z" fill="black"/>
<path d="M74.3127 63.0789H77.6147L90.0122 41.9744L102.194 62.9099L105.539 62.9118L91.6137 39.0637L98.6594 23.2303C98.8452 22.8046 98.0953 22.4601 97.8479 22.8803L74.3127 63.0789ZM79.6607 106.78C79.9371 107.26 80.3854 107.549 80.9401 107.609L80.9737 107.613H99.1141C99.5978 107.596 100.103 107.347 100.369 106.939L124.842 64.9904C124.941 64.7743 124.997 64.0421 125.028 63.6884L123.801 63.5822L123.735 64.3099L123.708 64.4936L99.3373 106.269C99.3067 106.306 99.2683 106.336 99.2248 106.358C99.1814 106.379 99.1338 106.391 99.0852 106.393H81.0475C80.9195 106.383 80.7916 106.279 80.7309 106.174L56.3497 64.4105C56.2802 64.2588 56.2218 64.1023 56.1751 63.9423C56.1553 63.7818 56.0718 63.6356 55.943 63.5359C55.8142 63.4363 55.6506 63.3913 55.4882 63.4109C55.3259 63.4305 55.1781 63.513 55.0773 63.6404C54.9765 63.7678 54.931 63.9295 54.9508 64.0901C54.9676 64.224 55.0041 64.3819 55.0526 64.5075L55.2403 64.9507L79.6607 106.78Z" fill="black"/>
</g>
<defs>
<clipPath id="clip0_46_1612">
<rect width="180" height="178" fill="white"/>
</clipPath>
</defs>
</svg>
